<?xml version="1.0" encoding="UTF-8" standalone="no"?>
<svg
   height="16"
   viewBox="0 0 16 16"
   width="16"
   version="1.1"
   id="svg87"
   sodipodi:docname="icon.svg.2025_02_20_16_04_06.0.svg"
   inkscape:version="1.4 (e7c3feb100, 2024-10-09)"
   xmlns:inkscape="http://www.inkscape.org/namespaces/inkscape"
   xmlns:sodipodi="http://sodipodi.sourceforge.net/DTD/sodipodi-0.dtd"
   xmlns="http://www.w3.org/2000/svg"
   xmlns:svg="http://www.w3.org/2000/svg">
  <defs
     id="defs91">
    <inkscape:path-effect
       effect="powermask"
       id="path-effect347"
       is_visible="true"
       lpeversion="1"
       uri="#mask-powermask-path-effect347"
       invert="false"
       hide_mask="false"
       background="true"
       background_color="#ffffffff" />
    <filter
       id="mask-powermask-path-effect2922_inverse"
       inkscape:label="filtermask-powermask-path-effect2922"
       style="color-interpolation-filters:sRGB"
       height="100"
       width="100"
       x="-50"
       y="-50">
      <feColorMatrix
         id="mask-powermask-path-effect2922_primitive1"
         values="1"
         type="saturate"
         result="fbSourceGraphic" />
      <feColorMatrix
         id="mask-powermask-path-effect2922_primitive2"
         values="-1 0 0 0 1 0 -1 0 0 1 0 0 -1 0 1 0 0 0 1 0 "
         in="fbSourceGraphic" />
    </filter>
    <filter
       id="mask-powermask-path-effect3679_inverse"
       inkscape:label="filtermask-powermask-path-effect3679"
       style="color-interpolation-filters:sRGB"
       height="100"
       width="100"
       x="-50"
       y="-50">
      <feColorMatrix
         id="mask-powermask-path-effect3679_primitive1"
         values="1"
         type="saturate"
         result="fbSourceGraphic" />
      <feColorMatrix
         id="mask-powermask-path-effect3679_primitive2"
         values="-1 0 0 0 1 0 -1 0 0 1 0 0 -1 0 1 0 0 0 1 0 "
         in="fbSourceGraphic" />
    </filter>
    <filter
       id="mask-powermask-path-effect3820_inverse"
       inkscape:label="filtermask-powermask-path-effect3820"
       style="color-interpolation-filters:sRGB"
       height="100"
       width="100"
       x="-50"
       y="-50">
      <feColorMatrix
         id="mask-powermask-path-effect3820_primitive1"
         values="1"
         type="saturate"
         result="fbSourceGraphic" />
      <feColorMatrix
         id="mask-powermask-path-effect3820_primitive2"
         values="-1 0 0 0 1 0 -1 0 0 1 0 0 -1 0 1 0 0 0 1 0 "
         in="fbSourceGraphic" />
    </filter>
  </defs>
  <sodipodi:namedview
     id="namedview89"
     pagecolor="#ffffff"
     bordercolor="#000000"
     borderopacity="0.25"
     inkscape:showpageshadow="2"
     inkscape:pageopacity="0.0"
     inkscape:pagecheckerboard="0"
     inkscape:deskcolor="#cc3333"
     showgrid="false"
     inkscape:lockguides="true"
     inkscape:zoom="45.254834"
     inkscape:cx="6.0214562"
     inkscape:cy="7.7008348"
     inkscape:window-width="1829"
     inkscape:window-height="956"
     inkscape:window-x="0"
     inkscape:window-y="0"
     inkscape:window-maximized="1"
     inkscape:current-layer="svg87" />
  <path
     id="path1282"
     clip-path="none"
     mask="none"
     style="display:inline;fill:#dd4444;fill-opacity:1;stroke-width:1.9805"
     inkscape:label="path375"
     d="M 8.2944241,0.87503777 C 8.1386481,2.1597859 7.7977454,2.483985 6.7573147,2.8652723 7.8644823,2.9838597 8.0964926,3.7896354 8.4702054,4.4844129 8.5431177,3.3654539 9.1922015,2.8005296 10.269033,2.6465223 8.8476047,2.4519362 8.6578147,1.8658041 8.2944241,0.87503777 Z M 13.800283,2.1016004 c -0.559332,-0.024859 -1.005859,0.484375 -1.00586,0.484375 l -0.560546,0.4589843 c 0.550873,0.468016 0.768671,1.2887577 0.839843,2.0683594 0.692585,-0.9103158 1.179688,-1.5546875 1.179688,-1.5546875 0,0 0.552524,-0.8654126 0.130859,-1.2167969 -0.19887,-0.165728 -0.39754,-0.2319481 -0.583984,-0.2402343 z M 4.1342678,2.4336316 C 4.0497064,3.2796599 3.8650716,3.4930944 3.3002835,3.7441785 3.9012991,3.8222703 4.0271045,4.353062 4.229971,4.8105847 4.2695508,4.0737313 4.6219854,3.7030168 5.2065335,3.6016004 4.4349243,3.4734621 4.3315311,3.0860679 4.1342678,2.4336316 Z M 11.905752,3.3164441 9.823721,5.0234754 c 0.889912,0.5803178 1.134543,1.7915513 1.167968,2.8105469 0.67199,-0.8720576 1.21676,-1.587867 1.742188,-2.2773438 -0.119576,-1.0437668 -0.523826,-1.84408 -0.828125,-2.2402344 z m -2.4394529,2 L 7.308096,7.0859754 C 8.5569859,7.7808525 8.818611,9.3922774 8.8178616,10.630898 9.403574,9.8878261 10.004777,9.1129229 10.587392,8.3594129 10.545511,6.8848887 9.892292,5.7658254 9.4662991,5.3164441 Z M 2.9526272,5.9980847 C 2.8385728,6.9191573 2.5893986,7.1524635 1.8276272,7.4258191 2.6382613,7.5108378 2.8079125,8.0878696 3.0815335,8.5859754 3.1349177,7.7837618 3.6114698,7.3780283 4.3998928,7.267616 3.3591666,7.1281117 3.2186906,6.7083934 2.9526272,5.9980847 Z M 13.169423,6.8398816 c -0.114053,0.9210725 -0.363229,1.1543788 -1.125,1.4277344 0.810635,0.085019 0.980286,0.6620505 1.253907,1.1601563 C 13.35171,8.6255587 13.828266,8.2217783 14.616689,8.111366 13.575963,7.9718617 13.435487,7.5501902 13.169423,6.8398816 Z M 6.901846,7.4180066 4.4995022,9.3887097 C 6.1638727,10.142869 6.6144359,11.858467 6.6733304,13.293007 7.1578751,12.711855 7.72957,12.001205 8.3217678,11.255898 8.3747984,9.3598064 7.4497581,7.9225772 6.901846,7.4180066 Z M 3.9838772,9.8105847 2.4741116,11.048866 c 0,0 -1.54537996,1.061047 -0.6835938,2.09961 0.8617865,1.038563 2.3863756,2.32012 3.3144532,1.833984 0.1398144,-0.07324 0.4572329,-0.404385 0.875,-0.878906 C 5.9414144,11.986531 4.7239916,10.391242 3.9838772,9.8105847 Z m 8.9687498,0.6210943 c -0.06179,0.471744 -0.196642,0.590465 -0.609375,0.730469 0.439207,0.04354 0.531437,0.340589 0.679687,0.595703 0.02892,-0.410868 0.285718,-0.619232 0.712891,-0.675781 -0.563872,-0.07145 -0.639048,-0.286594 -0.783203,-0.650391 z M 9.92919,10.773476 c -0.155777,1.284749 -0.4986321,1.608946 -1.5390628,1.990234 1.1071676,0.118587 1.3411302,0.924363 1.7148428,1.619141 0.07291,-1.118959 0.721996,-1.683884 1.798829,-1.837891 C 10.48237,12.350373 10.29258,11.764243 9.92919,10.773476 Z" />
</svg>
