# This file is brought to you by Roblox Corporation
# Generated by Roblox Studio

mtllib deskmain.mtl

g Main1

v -0.0799939 -2.63298 2.94231 
v -0.0799939 -2.46558 2.96841 
v 0.08 -2.63298 2.94231 
v 0.08 -2.46558 2.96841 
v 0.08 -2.63298 2.94231 
v 0.0799939 -3.53134 2.94231 
v -0.0799939 -2.63298 2.94231 
v -0.0799939 -3.53134 2.94231 
v 0.0799939 -3.53134 2.94231 
v 0.08 -2.63298 2.94231 
v 0.08 -2.46558 2.96841 
v 0.08 -3.53134 4.69098 
v -0.08 -3.53134 4.69098 
v 0.0799939 -3.53134 2.94231 
v -0.0799939 -3.53134 2.94231 
v -0.0799939 -2.63298 2.94231 
v -0.0799939 -3.53134 2.94231 
v -0.0799939 -2.46558 2.96841 
v -0.08 -3.53134 4.69098 
v -0.08 -2.29817 2.94231 
v -0.0799939 -1.95673 2.94231 
v 0.0799939 -1.95673 2.94231 
v 0.0799939 -2.29817 2.94231 
v -0.0799939 -1.95673 2.94231 
v -0.08 -2.29817 2.94231 
v 0.0799939 -2.29817 2.94231 
v -0.08 -2.29817 2.94231 
v 0.0799939 -2.29817 2.94231 
v 0.0799939 -1.95673 2.94231 
v 0.0799939 -1.95673 2.88909 
v 0.0799939 -1.95673 2.94231 
v -0.0799939 -1.95673 2.88909 
v -0.0799939 -1.95673 2.94231 
v -0.0799939 -1.95673 2.88909 
v -0.0799939 -1.30656 2.78774 
v 0.0799939 -1.95673 2.88909 
v 0.0799939 -1.30656 2.78774 
v 0.0799939 -0.43251 2.37711 
v -0.08 -0.43251 2.37711 
v 0.08 0.126074 1.93723 
v -0.0799939 0.126074 1.93723 
v 0.08 0.126074 1.93723 
v -0.0799939 0.126074 1.93723 
v 0.08 0.584015 1.40066 
v -0.0799939 0.584015 1.40066 
v 0.0799939 1.01149 0.561089 
v -0.0799939 1.01149 0.561089 
v 0.08 0.584015 1.40066 
v 0.08 3.53134 4.69098 
v 0.08 0.126074 1.93723 
v 0.0799939 1.01149 0.561089 
v 0.0799939 -0.43251 2.37711 
v 0.0799939 -1.30656 2.78774 
v 0.0799939 -1.95673 2.88909 
v 0.08 -3.53134 4.69098 
v -0.08 3.53134 -4.69098 
v -0.08 3.53134 4.69098 
v 0.08 3.53134 -4.69098 
v 0.08 3.53134 4.69098 
v -0.08 -1.95222 4.69098 
v 0.08 -3.53134 4.69098 
v -0.08 3.53134 4.69098 
v -0.08 -3.53134 4.69098 
v 0.08 3.53134 4.69098 
v -0.08 3.53134 4.69098 
v -0.08 -1.95222 4.69098 
v -0.0799939 -1.30656 2.78774 
v -0.0799939 -1.95673 2.88909 
v -0.08 -0.43251 2.37711 
v -0.0799939 0.126074 1.93723 
v -0.0799939 0.584015 1.40066 
v -0.0799939 1.01149 0.561089 
v -0.0799939 1.18927 -0.491282 
v -0.0799939 1.20287 -0.491282 
v 0.0799939 1.18927 -0.491282 
v 0.0799939 1.20287 -0.491282 
v 0.0799939 1.20287 -0.491282 
v -0.0799939 1.20287 -0.491282 
v 0.0799878 1.20287 -4.69098 
v -0.08 1.20287 -4.69098 
v 0.0799939 1.18927 -0.491282 
v -0.0799939 1.18927 -0.491282 
v 0.0799939 1.20287 -0.491282 
v 0.0799939 1.18927 -0.491282 
v -0.0799939 1.18927 -0.491282 
v -0.0799939 1.20287 -0.491282 
v -0.08 3.53134 -4.69098 
v -0.08 1.20287 -4.69098 
v -0.08 3.53134 -4.69098 
v 0.0799878 1.20287 -4.69098 
v 0.08 3.53134 -4.69098 
v -0.08 1.20287 -4.69098 
v 0.0799878 1.20287 -4.69098 
v 0.08 3.53134 -4.69098 

vn 0 0.0472441 -1 
vn 0 0 -1 
vn 0 0.0472441 -1 
vn 0 0 -1 
vn 0 0 -1 
vn 0 0 -1 
vn 0 0 -1 
vn 0 0 -1 
vn 1 0 0 
vn 1 0 0 
vn 1 0 0 
vn 0 -1 0 
vn 0 -1 0 
vn 0 -1 0 
vn 0 -1 0 
vn -1 0 0 
vn -1 0 0 
vn -1 0 0 
vn -1 0 0 
vn -1 0 0 
vn -1 0 0 
vn 0 0 -1 
vn 0 0 -1 
vn 0 0 -1 
vn 0 0 -1 
vn 0 -0.0472441 -1 
vn 0 -0.0472441 -1 
vn 1 0 0 
vn 1 0 0 
vn 0 -1 0 
vn 0 -1 0 
vn 0 -1 0 
vn 0 -1 0 
vn 0 -0.141732 -0.992126 
vn 0 -0.314961 -0.944882 
vn 0 -0.141732 -0.992126 
vn 0 -0.314961 -0.944882 
vn 0 -0.551181 -0.834646 
vn 0 -0.551181 -0.834646 
vn 0 -0.708661 -0.708661 
vn 0 -0.708661 -0.708661 
vn 0 -0.708661 -0.708661 
vn 0 -0.708661 -0.708661 
vn 0 -0.834646 -0.551181 
vn 0 -0.834646 -0.551181 
vn 0 -0.944882 -0.314961 
vn 0 -0.944882 -0.314961 
vn 1 0 0 
vn 1 0 0 
vn 1 0 0 
vn 1 0 0 
vn 1 0 0 
vn 1 0 0 
vn 1 0 0 
vn 1 0 0 
vn 0 1 0 
vn 0 1 0 
vn 0 1 0 
vn 0 1 0 
vn 0 0 1 
vn 0 0 1 
vn 0 0 1 
vn 0 0 1 
vn 0 0 1 
vn -1 0 0 
vn -1 0 0 
vn -1 0 0 
vn -1 0 0 
vn -1 0 0 
vn -1 0 0 
vn -1 0 0 
vn -1 0 0 
vn 0 0 -1 
vn 0 0 -1 
vn 0 0 -1 
vn 0 0 -1 
vn 0 -1 0 
vn 0 -1 0 
vn 0 -1 0 
vn 0 -1 0 
vn 0 -1 -0.015748 
vn 0 -1 -0.015748 
vn 1 0 0 
vn 1 0 0 
vn -1 0 0 
vn -1 0 0 
vn -1 0 0 
vn 0 0 -1 
vn 0 0 -1 
vn 0 0 -1 
vn 0 0 -1 
vn -1 0 0 
vn 1 0 0 
vn 1 0 0 

vt 18.01 0.670878 
vt 18.01 0.691803 
vt 17.99 0.670878 
vt 17.99 0.691803 
vt 17.99 0.670878 
vt 17.99 0.558582 
vt 18.01 0.670878 
vt 18.01 0.558582 
vt 17.6322 0.558582 
vt 17.6322 0.670878 
vt 17.629 0.691803 
vt 18.01 1.58637 
vt 17.99 1.58637 
vt 18.01 1.36779 
vt 17.99 1.36779 
vt 18.3678 0.670878 
vt 18.3678 0.558582 
vt 18.371 0.691803 
vt 18.5864 0.558583 
vt 18.3678 0.712729 
vt 18.3678 0.755409 
vt 17.99 0.755409 
vt 17.99 0.712729 
vt 18.01 0.755409 
vt 18.01 0.712729 
vt 17.99 0.712729 
vt 18.01 0.712729 
vt 17.6322 0.712729 
vt 17.6322 0.755409 
vt 18.01 1.36114 
vt 18.01 1.36779 
vt 17.99 1.36114 
vt 17.99 1.36779 
vt 18.01 0.755409 
vt 18.01 0.83668 
vt 17.99 0.755409 
vt 17.99 0.83668 
vt 17.99 0.945936 
vt 18.01 0.945936 
vt 17.99 1.01576 
vt 18.01 1.01576 
vt 18.01 1.24215 
vt 17.99 1.24215 
vt 18.01 1.17508 
vt 17.99 1.17508 
vt 18.01 1.07014 
vt 17.99 1.07014 
vt 17.8249 1.073 
vt 17.4136 1.44142 
vt 17.7578 1.01576 
vt 17.9299 1.12644 
vt 17.7029 0.945936 
vt 17.6515 0.83668 
vt 17.6389 0.755409 
vt 17.4136 0.558583 
vt 18.01 0.413628 
vt 18.01 1.58637 
vt 17.99 0.413628 
vt 17.99 1.58637 
vt 17.99 0.755973 
vt 18.01 0.558583 
vt 17.99 1.44142 
vt 17.99 0.558583 
vt 18.01 1.44142 
vt 18.5864 1.44142 
vt 18.5864 0.755973 
vt 18.3485 0.83668 
vt 18.3611 0.755409 
vt 18.2971 0.945936 
vt 18.2422 1.01576 
vt 18.1751 1.073 
vt 18.0701 1.12644 
vt 18.01 1.14866 
vt 18.01 1.15036 
vt 17.99 1.14866 
vt 17.99 1.15036 
vt 18.01 0.93859 
vt 17.99 0.93859 
vt 18.01 0.413628 
vt 17.99 0.413628 
vt 18.01 0.93859 
vt 17.99 0.93859 
vt 18.0614 1.15036 
vt 18.0614 1.14866 
vt 17.9386 1.14866 
vt 17.9386 1.15036 
vt 17.4136 1.44142 
vt 18.01 1.15036 
vt 18.01 1.44142 
vt 17.99 1.15036 
vt 17.99 1.44142 
vt 17.4136 1.15036 
vt 18.5864 1.15036 
vt 18.5864 1.44142 

usemtl Main1Mtl

f 1/1/1 2/2/2 3/3/3 
f 2/2/2 4/4/4 3/3/3 
f 5/5/5 6/6/6 7/7/7 
f 6/6/6 8/8/8 7/7/7 
f 9/9/9 10/10/10 11/11/11 
f 12/12/12 13/13/13 14/14/14 
f 13/13/13 15/15/15 14/14/14 
f 16/16/16 17/17/17 18/18/18 
f 17/17/17 19/19/19 18/18/18 
f 18/18/18 19/19/19 20/20/20 
f 19/19/19 21/21/21 20/20/20 
f 22/22/22 23/23/23 24/24/24 
f 23/23/23 25/25/25 24/24/24 
f 4/4/4 2/2/2 26/26/26 
f 2/2/2 27/27/27 26/26/26 
f 28/28/28 29/29/29 11/11/11 
f 30/30/30 31/31/31 32/32/32 
f 31/31/31 33/33/33 32/32/32 
f 34/34/34 35/35/35 36/36/36 
f 37/37/37 36/36/36 35/35/35 
f 37/37/37 35/35/35 38/38/38 
f 35/35/35 39/39/39 38/38/38 
f 38/38/38 39/39/39 40/40/40 
f 39/39/39 41/41/41 40/40/40 
f 42/42/42 43/43/43 44/44/44 
f 43/43/43 45/45/45 44/44/44 
f 44/44/44 45/45/45 46/46/46 
f 45/45/45 47/47/47 46/46/46 
f 48/48/48 49/49/49 50/50/50 
f 51/51/51 49/49/49 48/48/48 
f 50/50/50 49/49/49 52/52/52 
f 52/52/52 49/49/49 53/53/53 
f 53/53/53 29/29/29 54/54/54 
f 29/29/29 49/49/49 11/11/11 
f 53/53/53 49/49/49 29/29/29 
f 49/49/49 55/55/55 11/11/11 
f 55/55/55 9/9/9 11/11/11 
f 56/56/56 57/57/57 58/58/58 
f 57/57/57 59/59/59 58/58/58 
f 60/60/60 61/61/61 62/62/62 
f 63/63/63 61/61/61 60/60/60 
f 61/61/61 64/64/64 62/62/62 
f 65/65/65 19/19/19 66/66/66 
f 65/65/65 67/67/67 19/19/19 
f 67/67/67 21/21/21 19/19/19 
f 68/68/68 21/21/21 67/67/67 
f 67/67/67 65/65/65 69/69/69 
f 69/69/69 65/65/65 70/70/70 
f 70/70/70 65/65/65 71/71/71 
f 71/71/71 65/65/65 72/72/72 
f 73/73/73 74/74/74 75/75/75 
f 74/74/74 76/76/76 75/75/75 
f 77/77/77 78/78/78 79/79/79 
f 78/78/78 80/80/80 79/79/79 
f 46/46/46 47/47/47 81/81/81 
f 47/47/47 82/82/82 81/81/81 
f 49/49/49 51/51/51 83/83/83 
f 51/51/51 84/84/84 83/83/83 
f 85/85/85 72/72/72 86/86/86 
f 72/72/72 65/65/65 86/86/86 
f 65/65/65 87/87/87 86/86/86 
f 88/88/88 89/89/89 90/90/90 
f 89/89/89 91/91/91 90/90/90 
f 87/87/87 92/92/92 86/86/86 
f 93/93/93 94/94/94 83/83/83 
f 94/94/94 49/49/49 83/83/83 

